<svg viewBox="0 0 951.56924 959.70989" xmlns="http://www.w3.org/2000/svg">
  <defs>
    <style>
      .cls-1 {
        fill: #ef0304;
      }
      .cls-2 {
        fill: #424d60;
      }
    </style>
  </defs>
  <path class="cls-2" d="M441.93963,448.60428c-17.43729,1.5397-42.56995,4.10273-95.91153,4.10273-63.59988,0-120.02078-10.2584-120.02078-64.11312v-98.98779c0-53.85472,56.93098-63.59988,120.53401-63.59988,53.34158,0,77.96101,2.56302,95.39829,4.10273,6.6689.51323,9.74516,2.04979,9.74516,6.15567v27.18245c0,3.5894-4.10273,6.15557-9.74516,6.15557h-100.01426c-23.59601,0-31.80147,4.61596-31.80147,20.00346v27.18245h127.713c5.64243,0,9.74516,2.56302,9.74516,6.15567v28.20892c0,3.07616-4.10273,6.15557-9.74516,6.15557h-127.713v31.28518c0,15.3875,8.20546,20.00346,31.80147,20.00346h100.01426c5.64243,0,9.74516,3.07941,9.74516,6.15567v27.69559c0,3.59264-3.07626,5.64243-9.74516,6.15567" />
  <path class="cls-2" d="M725.5642,517.6219v31.2458c0,3.12321-2.60213,3.6443-6.24972,3.6443h-1.04217c-20.8273-.52108-52.59428-2.08424-89.04444-2.08424h-4.68647c-31.2459,1.04207-51.03413,13.02063-51.03413,49.99187v37.49562c0,40.61883,27.07702,49.99187,47.90762,49.99187,11.97855,0,22.39056,0,32.80586-.52108v-33.85113h-14.05979c-3.6443,0-6.24643-2.60222-6.24643-5.72553v-28.64038c0-3.12641,2.60213-5.72864,6.24643-5.72864h76.5512c4.68666,0,8.33096,2.60222,8.33096,5.72864v99.45964c0,4.36355-2.12276,5.88792-8.33096,6.7709-.78101.11108,0,0-3.6443.52108-22.39385,3.12321-51.55522,5.72864-91.65297,5.72864-48.42871,0-121.33231-19.26725-121.33231-94.25509v-36.97454c0-75.50893,67.69605-94.25509,129.14529-94.25509,42.70007,0,73.42469,4.16538,89.04444,6.77081,4.16868.52108,7.29189,1.56325,7.29189,4.68656" />
  <rect class="cls-1" x="226.25257" y="506.16452" width="226.00732" height="226.00732" rx="22.60073" ry="22.60073" />
  <rect class="cls-1" x="499.5546" y="226.00732" width="226.00732" height="226.00732" rx="22.60073" ry="22.60073" />
</svg>
